<svg width="53" height="53" viewBox="0 0 53 53" fill="none" xmlns="http://www.w3.org/2000/svg">
<path fill-rule="evenodd" clip-rule="evenodd" d="M26.5003 48.5827C38.6965 48.5827 48.5837 38.6955 48.5837 26.4993C48.5837 14.3031 38.6965 4.41602 26.5003 4.41602C14.304 4.41602 4.41699 14.3031 4.41699 26.4993C4.41699 38.6955 14.304 48.5827 26.5003 48.5827ZM34.2964 22.0157C34.9432 22.6626 34.9432 23.7111 34.2964 24.3579L27.6714 30.9829C27.3609 31.2936 26.9396 31.4681 26.5003 31.4681C26.0611 31.4681 25.6397 31.2936 25.3292 30.9829L18.7042 24.3579C18.0574 23.7111 18.0574 22.6626 18.7042 22.0157C19.351 21.3689 20.3997 21.3689 21.0465 22.0157L26.5003 27.4695L31.9542 22.0157C32.6011 21.3689 33.6496 21.3689 34.2964 22.0157Z" fill="#305050"/>
</svg>
