<svg width="45" height="45" viewBox="0 0 45 45" fill="none" xmlns="http://www.w3.org/2000/svg">
<path fill-rule="evenodd" clip-rule="evenodd" d="M22.0833 44.1667C34.2795 44.1667 44.1667 34.2795 44.1667 22.0833C44.1667 9.88704 34.2795 0 22.0833 0C9.88704 0 0 9.88704 0 22.0833C0 34.2795 9.88704 44.1667 22.0833 44.1667ZM29.8794 17.5997C30.5262 18.2466 30.5262 19.2951 29.8794 19.9419L23.2544 26.5669C22.9439 26.8776 22.5226 27.0521 22.0833 27.0521C21.6441 27.0521 21.2227 26.8776 20.9123 26.5669L14.2872 19.9419C13.6404 19.2951 13.6404 18.2466 14.2872 17.5997C14.934 16.9529 15.9827 16.9529 16.6295 17.5997L22.0833 23.0535L27.5373 17.5997C28.1841 16.9529 29.2326 16.9529 29.8794 17.5997Z" fill="#305050"/>
</svg>
