<svg width="61" height="61" viewBox="0 0 61 61" fill="none" xmlns="http://www.w3.org/2000/svg">
<path d="M55.4545 7.625H5.54545C2.48278 7.625 0 10.1078 0 13.1705V46.4431C0 49.5059 2.48278 51.9886 5.54545 51.9886H55.4545C58.5173 51.9886 61 49.5059 61 46.4431V13.1705C61 10.1078 58.5173 7.625 55.4545 7.625Z" fill="#1C274C"/>
<path fill-rule="evenodd" clip-rule="evenodd" d="M55.4553 7.625H5.54623C4.81086 7.625 4.10347 7.76571 3.42408 8.04712C2.74468 8.32854 2.14499 8.72924 1.625 9.24923L26.5796 34.2038C27.0995 34.7237 27.6992 35.1244 28.3786 35.4057C29.0579 35.6873 29.7654 35.8282 30.5008 35.8282C31.236 35.8282 31.9434 35.6873 32.623 35.4057C33.3022 35.1244 33.9019 34.7237 34.4219 34.2038L59.3765 9.24922C58.8566 8.72923 58.2569 8.32853 57.5775 8.04712C56.8982 7.76571 56.1907 7.625 55.4553 7.625Z" fill="#8D92A5"/>
</svg>
