<svg width="53" height="53" viewBox="0 0 53 53" fill="none" xmlns="http://www.w3.org/2000/svg">
<path fill-rule="evenodd" clip-rule="evenodd" d="M4.41659 26.4987C4.41659 14.3025 14.3037 4.41537 26.4999 4.41537C38.6962 4.41537 48.5833 14.3025 48.5833 26.4987C48.5833 38.695 38.6962 48.582 26.4999 48.582C14.3037 48.582 4.41659 38.695 4.41659 26.4987ZM30.9836 18.7026C30.3367 18.0558 29.2882 18.0558 28.6413 18.7026L22.0163 25.3276C21.7056 25.6381 21.5312 26.0595 21.5312 26.4987C21.5312 26.9379 21.7056 27.3593 22.0163 27.6698L28.6413 34.2948C29.2882 34.9416 30.3367 34.9416 30.9836 34.2948C31.6304 33.648 31.6304 32.5994 30.9836 31.9526L25.5298 26.4987L30.9836 21.0448C31.6304 20.398 31.6304 19.3494 30.9836 18.7026Z" fill="#305050"/>
</svg>
