<svg width="86" height="86" viewBox="0 0 86 86" fill="none" xmlns="http://www.w3.org/2000/svg">
<path d="M43 0C25.1899 0 10.75 14.4399 10.75 32.25C10.75 39.263 13.0492 45.6982 16.8708 50.9684C16.9393 51.0947 16.9501 51.2358 17.028 51.3568L38.528 83.6068C39.5251 85.1024 41.2048 86 43 86C44.7952 86 46.4749 85.1024 47.472 83.6068L68.972 51.3568C69.0513 51.2358 69.0607 51.0947 69.1292 50.9684C72.9508 45.6982 75.25 39.263 75.25 32.25C75.25 14.4399 60.8101 0 43 0ZM43 43C37.0633 43 32.25 38.1867 32.25 32.25C32.25 26.3133 37.0633 21.5 43 21.5C48.9367 21.5 53.75 26.3133 53.75 32.25C53.75 38.1867 48.9367 43 43 43Z" fill="#305050"/>
</svg>
