<svg width="97" height="97" viewBox="0 0 97 97" fill="none" xmlns="http://www.w3.org/2000/svg">
<path fill-rule="evenodd" clip-rule="evenodd" d="M48.4997 64.6673C64.1248 64.6673 76.7913 52.0007 76.7913 36.3757C76.7913 20.7506 64.1248 8.08398 48.4997 8.08398C32.8746 8.08398 20.208 20.7506 20.208 36.3757C20.208 52.0007 32.8746 64.6673 48.4997 64.6673ZM48.4997 24.2507C47.3514 24.2507 46.5835 25.6282 45.0477 28.3833L44.6504 29.0961C44.2143 29.879 43.996 30.2705 43.6557 30.5287C43.3154 30.787 42.8919 30.8829 42.0443 31.0746L41.2728 31.2492C38.2903 31.924 36.7991 32.2614 36.4443 33.4023C36.0895 34.5431 37.1061 35.7319 39.1393 38.1094L39.6653 38.7245C40.2431 39.4002 40.5319 39.738 40.6621 40.1559C40.7918 40.5737 40.7482 41.0244 40.6609 41.9261L40.5812 42.7465C40.2739 45.9188 40.1202 47.5048 41.0489 48.2101C41.978 48.9149 43.374 48.2723 46.1664 46.9866L46.8887 46.654C47.6824 46.2886 48.0789 46.106 48.4997 46.106C48.9204 46.106 49.3169 46.2886 50.1107 46.654L50.8329 46.9866C53.6253 48.2723 55.0213 48.9149 55.9505 48.2101C56.8793 47.5048 56.7253 45.9188 56.4181 42.7465L56.3385 41.9261C56.2512 41.0244 56.2075 40.5737 56.3373 40.1559C56.4674 39.738 56.7564 39.4001 57.3339 38.7246L57.8602 38.1094C59.8931 35.7319 60.91 34.5431 60.5552 33.4023C60.2003 32.2614 58.7089 31.924 55.7266 31.2492L54.955 31.0746C54.1075 30.8829 53.6839 30.787 53.3436 30.5287C53.0033 30.2705 52.7851 29.879 52.349 29.0961L51.9517 28.3833C50.4158 25.6282 49.6479 24.2507 48.4997 24.2507Z" fill="#305050"/>
<path opacity="0.5" d="M27.1367 70.0131L29.7107 60.6243L32.3333 52.541H64.6667L67.2893 60.6243L69.8634 70.0131C72.4028 79.2758 73.6727 83.9072 71.978 86.4429C71.3843 87.3313 70.5877 88.0446 69.6634 88.5151C67.0258 89.8581 62.953 87.7363 54.8078 83.4921C52.0975 82.0799 50.7423 81.3739 49.3027 81.2203C48.7688 81.1633 48.2312 81.1633 47.6973 81.2203C46.2577 81.3739 44.9025 82.0799 42.1922 83.4921C34.047 87.7363 29.9744 89.8581 27.3367 88.5151C26.4123 88.0446 25.6157 87.3313 25.0218 86.4429C23.3274 83.9072 24.5972 79.2758 27.1367 70.0131Z" fill="#1C274C"/>
</svg>
