<svg width="156" height="156" viewBox="0 0 156 156" fill="none" xmlns="http://www.w3.org/2000/svg">
<path opacity="0.5" fill-rule="evenodd" clip-rule="evenodd" d="M13 104.934V32.4861C13 25.3479 18.7609 19.5493 25.8856 19.9871C32.232 20.3772 39.7377 21.1482 45.5 22.6688C52.3199 24.4684 60.4247 28.3014 66.8349 31.6908C70.3079 33.5275 74.165 34.385 78 34.284V133.083C74.3561 133.083 70.7122 132.205 67.4206 130.45C60.924 126.988 52.5294 122.972 45.5 121.117C39.8014 119.613 32.3978 118.843 26.0966 118.449C18.8893 117.998 13 112.155 13 104.934Z" fill="#1C274D"/>
<path d="M143 104.934V32.0663C143 25.0953 137.5 19.3731 130.533 19.6158C123.197 19.8714 114.055 20.6317 107.25 22.6689C101.351 24.4351 94.4795 27.9777 88.8797 31.2183C85.5316 33.1562 81.7765 34.1847 78 34.2841V133.083C81.6439 133.083 85.2878 132.205 88.5794 130.451C95.0761 126.988 103.47 122.973 110.5 121.117C116.199 119.613 123.602 118.843 129.903 118.449C137.111 117.998 143 112.155 143 104.934Z" fill="#305050"/>
</svg>
