<svg width="165" height="162" viewBox="0 0 165 162" fill="none" xmlns="http://www.w3.org/2000/svg">
<path d="M51.5625 40.5C38.4058 40.5 27.7159 50.8666 27.5034 63.734C26.8833 69.5729 26.9734 78.1859 30.9925 88.13C35.1003 98.2922 43.1227 109.378 57.75 120.149C60.7874 122.386 65.0966 121.782 67.375 118.799C69.6534 115.817 69.0374 111.586 66 109.349C55.2475 101.432 49.0813 93.7339 45.5613 87.0095C47.4801 87.4928 49.4904 87.75 51.5625 87.75C64.8519 87.75 75.625 77.1727 75.625 64.125C75.625 51.0773 64.8519 40.5 51.5625 40.5ZM113.438 40.5C100.281 40.5 89.5909 50.8666 89.3784 63.7341C88.7583 69.5729 88.8484 78.1859 92.8675 88.13C96.9752 98.2922 104.998 109.378 119.625 120.149C122.663 122.386 126.972 121.782 129.25 118.799C131.528 115.817 130.913 111.586 127.875 109.349C117.123 101.432 110.956 93.7339 107.436 87.0095C109.355 87.4928 111.366 87.75 113.438 87.75C126.727 87.75 137.5 77.1727 137.5 64.125C137.5 51.0773 126.727 40.5 113.438 40.5Z" fill="#FBFC9C"/>
</svg>
