<svg width="111" height="82" viewBox="0 0 111 82" fill="none" xmlns="http://www.w3.org/2000/svg">
<path d="M24.5625 0.5C11.4058 0.5 0.715858 10.8666 0.50342 23.734C-0.116705 29.5729 -0.0266455 38.1859 3.99248 48.13C8.10029 58.2922 16.1227 69.3783 30.75 80.1493C33.7874 82.3863 38.0966 81.7821 40.375 78.7993C42.6534 75.8172 42.0374 71.5863 39 69.3493C28.2475 61.4322 22.0813 53.7339 18.5613 47.0095C20.4801 47.4928 22.4904 47.75 24.5625 47.75C37.8519 47.75 48.625 37.1727 48.625 24.125C48.625 11.0773 37.8519 0.5 24.5625 0.5ZM86.4375 0.5C73.2811 0.5 62.5909 10.8666 62.3784 23.7341C61.7583 29.5729 61.8484 38.1859 65.8675 48.13C69.9752 58.2922 77.9979 69.3783 92.6251 80.1493C95.6626 82.3863 99.9719 81.7821 102.25 78.7993C104.528 75.8172 103.913 71.5863 100.875 69.3493C90.1228 61.4322 83.9561 53.7339 80.4364 47.0095C82.3548 47.4928 84.3656 47.75 86.4375 47.75C99.7269 47.75 110.5 37.1727 110.5 24.125C110.5 11.0773 99.7269 0.5 86.4375 0.5Z" fill="#FBFC9C"/>
</svg>
