<svg width="49" height="49" viewBox="0 0 49 49" fill="none" xmlns="http://www.w3.org/2000/svg">
<path opacity="0.5" fill-rule="evenodd" clip-rule="evenodd" d="M29.1525 4.39383C28.3965 4.08301 27.438 4.08301 25.5208 4.08301C23.6037 4.08301 22.6451 4.08301 21.8891 4.39383C20.8809 4.80827 20.08 5.60319 19.6624 6.60371C19.4718 7.06045 19.3972 7.59161 19.368 8.3664C19.3251 9.50502 18.7367 10.5589 17.7424 11.1287C16.7482 11.6983 15.5343 11.6771 14.5193 11.1446C13.8286 10.7823 13.3278 10.5809 12.8339 10.5163C11.752 10.375 10.6579 10.6659 9.79216 11.3252C9.14287 11.8197 8.66358 12.6435 7.70504 14.2912C6.7465 15.9389 6.26724 16.7627 6.16042 17.568C6.01797 18.6417 6.31115 19.7276 6.97545 20.5868C7.27866 20.979 7.70478 21.3085 8.36613 21.721C9.3384 22.3273 9.96398 23.3602 9.96392 24.4997C9.96386 25.6391 9.33829 26.6718 8.36613 27.278C7.70467 27.6906 7.27848 28.0203 6.97525 28.4125C6.31095 29.2717 6.01779 30.3574 6.16021 31.4311C6.26703 32.2364 6.74632 33.0604 7.70484 34.708C8.66338 36.3556 9.14266 37.1796 9.79195 37.6739C10.6577 38.3332 11.7518 38.6241 12.8337 38.4828C13.3275 38.4183 13.8283 38.2168 14.519 37.8546C15.5341 37.3222 16.748 37.3009 17.7423 37.8705C18.7367 38.4404 19.325 39.4943 19.368 40.6331C19.3972 41.4077 19.4718 41.939 19.6624 42.3957C20.08 43.3961 20.8809 44.1911 21.8891 44.6056C22.6451 44.9163 23.6037 44.9163 25.5208 44.9163C27.438 44.9163 28.3965 44.9163 29.1525 44.6056C30.1607 44.1911 30.9617 43.3961 31.3792 42.3957C31.5699 41.939 31.6446 41.4077 31.6738 40.6329C31.7167 39.4943 32.3049 38.4404 33.2992 37.8705C34.2935 37.3007 35.5074 37.3222 36.5226 37.8546C37.2133 38.2168 37.7139 38.4181 38.2077 38.4826C39.2896 38.6241 40.3838 38.3332 41.2494 37.6739C41.8989 37.1794 42.3781 36.3556 43.3366 34.7078C44.2952 33.0602 44.7744 32.2364 44.8813 31.4311C45.0236 30.3574 44.7305 29.2715 44.0663 28.4123C43.7629 28.0201 43.3368 27.6904 42.6753 27.278C41.7033 26.6718 41.0777 25.6389 41.0777 24.4995C41.0777 23.36 41.7033 22.3275 42.6753 21.7214C43.337 21.3088 43.7631 20.9792 44.0665 20.5868C44.7307 19.7277 45.0239 18.6419 44.8815 17.5682C44.7746 16.7629 44.2954 15.939 43.3368 14.2913C42.3783 12.6437 41.8991 11.8198 41.2496 11.3253C40.384 10.6661 39.2898 10.3751 38.208 10.5165C37.7141 10.581 37.2133 10.7825 36.5228 11.1447C35.5076 11.6772 34.2937 11.6985 33.2994 11.1287C32.3051 10.559 31.7167 9.50498 31.6736 8.3663C31.6444 7.59157 31.5699 7.06043 31.3792 6.60371C30.9617 5.60319 30.1607 4.80827 29.1525 4.39383Z" fill="#305050"/>
<path d="M31.6928 24.5C31.6928 27.8828 28.9298 30.625 25.5213 30.625C22.1127 30.625 19.3496 27.8828 19.3496 24.5C19.3496 21.1172 22.1127 18.375 25.5213 18.375C28.9298 18.375 31.6928 21.1172 31.6928 24.5Z" fill="#305050"/>
</svg>
