<svg width="72" height="71" viewBox="0 0 72 71" fill="none" xmlns="http://www.w3.org/2000/svg">
<path d="M49.7619 45.458L47.9732 47.3407C47.9732 47.3407 43.7217 51.8161 32.1173 39.6004C20.513 27.3849 24.7643 22.9097 24.7643 22.9097L25.8907 21.724C28.6654 18.8032 28.927 14.114 26.5061 10.6906L21.5542 3.68777C18.5579 -0.549326 12.7682 -1.10904 9.33394 2.50602L3.17005 8.99452C1.4672 10.787 0.326078 13.1107 0.464467 15.6884C0.818491 22.283 3.63682 36.4714 19.3633 53.0262C36.0404 70.5815 51.6886 71.2792 58.0877 70.6479C60.1117 70.448 61.8718 69.3568 63.2902 67.8636L68.869 61.9912C72.6347 58.0274 71.5728 51.2318 66.7547 48.459L59.252 44.141C56.0884 42.3203 52.2344 42.8551 49.7619 45.458Z" fill="#305050"/>
</svg>
