<svg width="94" height="70" viewBox="0 0 94 70" fill="none" xmlns="http://www.w3.org/2000/svg">
<path d="M0 10.1V63.492C0 66.9721 2.82098 69.7931 6.30106 69.7931H14.4236C18.2896 69.7931 21.4236 66.659 21.4236 62.7931V39.8009C21.4236 37.3164 24.2708 35.9087 26.245 37.4171L40.5566 48.3519C44.1409 51.0905 49.1148 51.0905 52.699 48.3519L67.0107 37.4171C68.9849 35.9087 71.832 37.3164 71.832 39.8009V62.793C71.832 66.659 74.9661 69.7931 78.832 69.7931H86.9546C90.4347 69.7931 93.2557 66.9721 93.2557 63.492V10.1C93.2557 1.76179 83.7095 -2.9722 77.072 2.07495L52.6802 20.6207C49.1035 23.3402 44.1521 23.3402 40.5754 20.6208L16.1836 2.07558C9.5461 -2.9722 0 1.76179 0 10.1Z" fill="#305050"/>
</svg>
